<svg width="966" height="193" viewBox="0 0 966 193" fill="none" xmlns="http://www.w3.org/2000/svg">
<mask id="mask0_65_2" style="mask-type:alpha" maskUnits="userSpaceOnUse" x="0" y="0" width="966" height="108">
<rect width="962.492" height="64.7331" transform="matrix(0.998991 0.0449092 -0.0640387 0.997947 4.14551 0)" fill="#D9D9D9"/>
</mask>
<g mask="url(#mask0_65_2)">
<path d="M128.12 77.7835C130.232 79.0635 131.992 80.8875 133.4 83.2555C134.872 85.6235 135.608 88.7915 135.608 92.7595C135.608 96.6635 134.36 100.215 131.864 103.415C127.256 109.431 120.248 112.439 110.84 112.439C106.744 112.439 102.68 111.863 98.6476 110.711C94.6796 109.495 91.7356 108.279 89.8156 107.063L86.9356 105.335L91.0636 97.0795C95.6716 99.3195 99.8316 100.439 103.544 100.439C107.256 100.439 109.112 99.2555 109.112 96.8875C109.112 95.5435 108.376 94.2955 106.904 93.1435C105.496 91.9275 103.736 90.7755 101.624 89.6875C99.5756 88.5995 97.4956 87.3515 95.3836 85.9435C93.3356 84.4715 91.5756 82.4555 90.1036 79.8955C88.6956 77.2715 87.9916 74.2315 87.9916 70.7755C87.9916 64.6315 90.3276 59.9595 94.9996 56.7595C99.7356 53.5595 105.432 51.9595 112.088 51.9595C116.056 51.9595 119.768 52.4395 123.224 53.3995C126.744 54.3595 129.24 55.3195 130.712 56.2795L133.016 57.7195L129.272 65.8795C126.008 64.4715 122.712 63.7675 119.384 63.7675C116.12 63.7675 114.488 65.0155 114.488 67.5115C114.488 68.8555 115.192 70.0715 116.6 71.1595C118.072 72.2475 119.832 73.3035 121.88 74.3275C123.992 75.2875 126.072 76.4395 128.12 77.7835ZM145.664 111.479L139.904 53.3035H170.144L165.824 96.5995L183.2 95.6395L177.728 111.479H145.664ZM187.061 82.7755C187.061 72.7275 189.973 65.0795 195.797 59.8315C201.685 54.5835 210.069 51.9595 220.949 51.9595C231.893 51.9595 240.277 54.5835 246.101 59.8315C251.989 65.0795 254.933 72.7275 254.933 82.7755C254.933 92.8235 251.829 100.279 245.621 105.143C239.477 110.007 231.253 112.439 220.949 112.439C210.709 112.439 202.485 110.007 196.277 105.143C190.133 100.279 187.061 92.8235 187.061 82.7755ZM229.397 82.3915C229.397 69.4635 226.581 62.9995 220.949 62.9995C215.381 62.9995 212.597 69.4635 212.597 82.3915C212.597 95.3195 215.381 101.783 220.949 101.783C226.581 101.783 229.397 95.3195 229.397 82.3915ZM313.307 53.3035L315.227 71.5435L299.771 68.4715L295.451 111.479H276.731L272.411 68.4715L256.859 71.5435L258.779 53.3035H313.307ZM358.37 77.7835C360.482 79.0635 362.242 80.8875 363.65 83.2555C365.122 85.6235 365.858 88.7915 365.858 92.7595C365.858 96.6635 364.61 100.215 362.114 103.415C357.506 109.431 350.498 112.439 341.09 112.439C336.994 112.439 332.93 111.863 328.898 110.711C324.93 109.495 321.986 108.279 320.066 107.063L317.186 105.335L321.314 97.0795C325.922 99.3195 330.082 100.439 333.794 100.439C337.506 100.439 339.362 99.2555 339.362 96.8875C339.362 95.5435 338.626 94.2955 337.154 93.1435C335.746 91.9275 333.986 90.7755 331.874 89.6875C329.826 88.5995 327.746 87.3515 325.634 85.9435C323.586 84.4715 321.826 82.4555 320.354 79.8955C318.946 77.2715 318.242 74.2315 318.242 70.7755C318.242 64.6315 320.578 59.9595 325.25 56.7595C329.986 53.5595 335.682 51.9595 342.338 51.9595C346.306 51.9595 350.018 52.4395 353.474 53.3995C356.994 54.3595 359.49 55.3195 360.962 56.2795L363.266 57.7195L359.522 65.8795C356.258 64.4715 352.962 63.7675 349.634 63.7675C346.37 63.7675 344.738 65.0155 344.738 67.5115C344.738 68.8555 345.442 70.0715 346.85 71.1595C348.322 72.2475 350.082 73.3035 352.13 74.3275C354.242 75.2875 356.322 76.4395 358.37 77.7835ZM416.906 111.479L414.698 89.3995L397.61 90.9355L395.594 111.479H376.874L371.114 53.3035H401.354L399.146 75.4795H413.354L411.146 53.3035H441.386L435.626 111.479H416.906ZM490.826 111.479L486.986 101.783H462.506L458.858 111.479H445.226L461.45 53.3035H495.626L511.85 111.479H490.826ZM482.09 89.3035L474.506 70.1035L467.21 89.3035H482.09ZM543.37 51.9595C547.082 51.9595 551.082 52.6315 555.37 53.9755C559.722 55.3195 563.274 57.0155 566.026 59.0635L561.994 67.6075C559.178 66.5195 556.074 65.9755 552.682 65.9755C543.21 65.9755 538.474 71.4795 538.474 82.4875C538.474 87.7995 539.754 91.9595 542.314 94.9675C544.938 97.9115 548.074 99.3835 551.722 99.3835C555.434 99.3835 558.89 98.6155 562.09 97.0795L566.41 105.335C559.946 110.071 552.234 112.439 543.274 112.439C534.314 112.439 526.986 109.815 521.29 104.567C515.658 99.3195 512.842 91.7995 512.842 82.0075C512.842 72.1515 515.626 64.6955 521.194 59.6395C526.762 54.5195 534.154 51.9595 543.37 51.9595ZM596.063 92.9515L594.239 111.479H575.519L569.759 53.3035H599.999L598.271 70.5835L613.919 53.3035H630.719L614.495 78.1675L633.983 111.479H615.167C606.207 102.839 599.839 96.6635 596.063 92.9515ZM676.088 77.7835C678.2 79.0635 679.96 80.8875 681.368 83.2555C682.84 85.6235 683.576 88.7915 683.576 92.7595C683.576 96.6635 682.328 100.215 679.832 103.415C675.224 109.431 668.216 112.439 658.808 112.439C654.712 112.439 650.648 111.863 646.616 110.711C642.648 109.495 639.704 108.279 637.784 107.063L634.904 105.335L639.032 97.0795C643.64 99.3195 647.8 100.439 651.512 100.439C655.224 100.439 657.08 99.2555 657.08 96.8875C657.08 95.5435 656.344 94.2955 654.872 93.1435C653.464 91.9275 651.704 90.7755 649.592 89.6875C647.544 88.5995 645.464 87.3515 643.352 85.9435C641.304 84.4715 639.544 82.4555 638.072 79.8955C636.664 77.2715 635.96 74.2315 635.96 70.7755C635.96 64.6315 638.296 59.9595 642.968 56.7595C647.704 53.5595 653.4 51.9595 660.056 51.9595C664.024 51.9595 667.736 52.4395 671.192 53.3995C674.712 54.3595 677.208 55.3195 678.68 56.2795L680.984 57.7195L677.24 65.8795C673.976 64.4715 670.68 63.7675 667.352 63.7675C664.088 63.7675 662.456 65.0155 662.456 67.5115C662.456 68.8555 663.16 70.0715 664.568 71.1595C666.04 72.2475 667.8 73.3035 669.848 74.3275C671.96 75.2875 674.04 76.4395 676.088 77.7835ZM732.513 111.479L728.673 101.783H704.193L700.545 111.479H686.913L703.137 53.3035H737.313L753.537 111.479H732.513ZM723.777 89.3035L716.193 70.1035L708.897 89.3035H723.777ZM836.417 53.3035H853.793C853.793 60.8555 853.025 68.0235 851.489 74.8075C850.017 81.5915 848.193 87.1275 846.017 91.4155C843.905 95.7035 841.761 99.4475 839.585 102.647C837.409 105.783 835.553 108.023 834.017 109.367L831.809 111.479H810.017L802.817 88.1515C801.921 91.1595 800.513 94.6155 798.593 98.5195C796.737 102.359 795.073 105.463 793.601 107.831L791.393 111.479H770.561L752.609 53.3035H783.041L788.513 91.1275C789.473 90.1675 790.657 88.4395 792.065 85.9435C793.537 83.3835 794.753 80.7915 795.713 78.1675C796.737 75.4795 797.665 71.9275 798.497 67.5115C799.393 63.0315 799.873 58.2955 799.937 53.3035H820.577L826.049 91.1275C830.529 85.4955 833.633 77.6235 835.361 67.5115C836.065 63.0315 836.417 58.2955 836.417 53.3035Z" fill="#F4F4F4"/>
</g>
<mask id="mask1_65_2" style="mask-type:alpha" maskUnits="userSpaceOnUse" x="65" y="73" width="877" height="120">
<rect x="68.9717" y="73" width="874" height="71.6437" transform="rotate(3.17786 68.9717 73)" fill="#D9D9D9"/>
</mask>
<g mask="url(#mask1_65_2)">
<path d="M134.104 81.304C136.216 82.584 137.976 84.408 139.384 86.776C140.856 89.144 141.592 92.312 141.592 96.28C141.592 100.184 140.344 103.736 137.848 106.936C133.24 112.952 126.232 115.96 116.824 115.96C112.728 115.96 108.664 115.384 104.632 114.232C100.664 113.016 97.72 111.8 95.8 110.584L92.92 108.856L97.048 100.6C101.656 102.84 105.816 103.96 109.528 103.96C113.24 103.96 115.096 102.776 115.096 100.408C115.096 99.064 114.36 97.816 112.888 96.664C111.48 95.448 109.72 94.296 107.608 93.208C105.56 92.12 103.48 90.872 101.368 89.464C99.32 87.992 97.56 85.976 96.088 83.416C94.68 80.792 93.976 77.752 93.976 74.296C93.976 68.152 96.312 63.48 100.984 60.28C105.72 57.08 111.416 55.48 118.072 55.48C122.04 55.48 125.752 55.96 129.208 56.92C132.728 57.88 135.224 58.84 136.696 59.8L139 61.24L135.256 69.4C131.992 67.992 128.696 67.288 125.368 67.288C122.104 67.288 120.472 68.536 120.472 71.032C120.472 72.376 121.176 73.592 122.584 74.68C124.056 75.768 125.816 76.824 127.864 77.848C129.976 78.808 132.056 79.96 134.104 81.304ZM151.649 115L145.889 56.824H176.129L171.809 100.12L189.185 99.16L183.713 115H151.649ZM193.045 86.296C193.045 76.248 195.957 68.6 201.781 63.352C207.669 58.104 216.053 55.48 226.933 55.48C237.877 55.48 246.261 58.104 252.085 63.352C257.973 68.6 260.917 76.248 260.917 86.296C260.917 96.344 257.813 103.8 251.605 108.664C245.461 113.528 237.237 115.96 226.933 115.96C216.693 115.96 208.469 113.528 202.261 108.664C196.117 103.8 193.045 96.344 193.045 86.296ZM235.381 85.912C235.381 72.984 232.565 66.52 226.933 66.52C221.365 66.52 218.581 72.984 218.581 85.912C218.581 98.84 221.365 105.304 226.933 105.304C232.565 105.304 235.381 98.84 235.381 85.912ZM319.292 56.824L321.212 75.064L305.756 71.992L301.436 115H282.716L278.396 71.992L262.844 75.064L264.764 56.824H319.292ZM364.354 81.304C366.466 82.584 368.226 84.408 369.634 86.776C371.106 89.144 371.842 92.312 371.842 96.28C371.842 100.184 370.594 103.736 368.098 106.936C363.49 112.952 356.482 115.96 347.074 115.96C342.978 115.96 338.914 115.384 334.882 114.232C330.914 113.016 327.97 111.8 326.05 110.584L323.17 108.856L327.298 100.6C331.906 102.84 336.066 103.96 339.778 103.96C343.49 103.96 345.346 102.776 345.346 100.408C345.346 99.064 344.61 97.816 343.138 96.664C341.73 95.448 339.97 94.296 337.858 93.208C335.81 92.12 333.73 90.872 331.618 89.464C329.57 87.992 327.81 85.976 326.338 83.416C324.93 80.792 324.226 77.752 324.226 74.296C324.226 68.152 326.562 63.48 331.234 60.28C335.97 57.08 341.666 55.48 348.322 55.48C352.29 55.48 356.002 55.96 359.458 56.92C362.978 57.88 365.474 58.84 366.946 59.8L369.25 61.24L365.506 69.4C362.242 67.992 358.946 67.288 355.618 67.288C352.354 67.288 350.722 68.536 350.722 71.032C350.722 72.376 351.426 73.592 352.834 74.68C354.306 75.768 356.066 76.824 358.114 77.848C360.226 78.808 362.306 79.96 364.354 81.304ZM422.891 115L420.683 92.92L403.595 94.456L401.579 115H382.859L377.099 56.824H407.339L405.131 79H419.339L417.131 56.824H447.371L441.611 115H422.891ZM496.81 115L492.97 105.304H468.49L464.842 115H451.21L467.434 56.824H501.61L517.834 115H496.81ZM488.074 92.824L480.49 73.624L473.194 92.824H488.074ZM549.354 55.48C553.066 55.48 557.066 56.152 561.354 57.496C565.706 58.84 569.258 60.536 572.01 62.584L567.978 71.128C565.162 70.04 562.058 69.496 558.666 69.496C549.194 69.496 544.458 75 544.458 86.008C544.458 91.32 545.738 95.48 548.298 98.488C550.922 101.432 554.058 102.904 557.706 102.904C561.418 102.904 564.874 102.136 568.074 100.6L572.394 108.856C565.93 113.592 558.218 115.96 549.258 115.96C540.298 115.96 532.97 113.336 527.274 108.088C521.642 102.84 518.826 95.32 518.826 85.528C518.826 75.672 521.61 68.216 527.178 63.16C532.746 58.04 540.138 55.48 549.354 55.48ZM602.048 96.472L600.224 115H581.504L575.744 56.824H605.984L604.256 74.104L619.904 56.824H636.704L620.48 81.688L639.968 115H621.152C612.192 106.36 605.824 100.184 602.048 96.472ZM682.073 81.304C684.185 82.584 685.945 84.408 687.353 86.776C688.825 89.144 689.561 92.312 689.561 96.28C689.561 100.184 688.313 103.736 685.817 106.936C681.209 112.952 674.201 115.96 664.793 115.96C660.697 115.96 656.633 115.384 652.601 114.232C648.633 113.016 645.689 111.8 643.769 110.584L640.889 108.856L645.017 100.6C649.625 102.84 653.785 103.96 657.497 103.96C661.209 103.96 663.065 102.776 663.065 100.408C663.065 99.064 662.329 97.816 660.857 96.664C659.449 95.448 657.689 94.296 655.577 93.208C653.529 92.12 651.449 90.872 649.337 89.464C647.289 87.992 645.529 85.976 644.057 83.416C642.649 80.792 641.945 77.752 641.945 74.296C641.945 68.152 644.281 63.48 648.953 60.28C653.689 57.08 659.385 55.48 666.041 55.48C670.009 55.48 673.721 55.96 677.177 56.92C680.697 57.88 683.193 58.84 684.665 59.8L686.969 61.24L683.225 69.4C679.961 67.992 676.665 67.288 673.337 67.288C670.073 67.288 668.441 68.536 668.441 71.032C668.441 72.376 669.145 73.592 670.553 74.68C672.025 75.768 673.785 76.824 675.833 77.848C677.945 78.808 680.025 79.96 682.073 81.304ZM738.498 115L734.658 105.304H710.178L706.53 115H692.898L709.122 56.824H743.298L759.522 115H738.498ZM729.762 92.824L722.178 73.624L714.882 92.824H729.762ZM842.402 56.824H859.778C859.778 64.376 859.01 71.544 857.474 78.328C856.002 85.112 854.178 90.648 852.002 94.936C849.89 99.224 847.746 102.968 845.57 106.168C843.394 109.304 841.538 111.544 840.002 112.888L837.794 115H816.002L808.802 91.672C807.906 94.68 806.498 98.136 804.578 102.04C802.722 105.88 801.058 108.984 799.586 111.352L797.378 115H776.546L758.594 56.824H789.026L794.498 94.648C795.458 93.688 796.642 91.96 798.05 89.464C799.522 86.904 800.738 84.312 801.698 81.688C802.722 79 803.65 75.448 804.482 71.032C805.378 66.552 805.858 61.816 805.922 56.824H826.562L832.034 94.648C836.514 89.016 839.618 81.144 841.346 71.032C842.05 66.552 842.402 61.816 842.402 56.824Z" fill="#1A73E8"/>
</g>
</svg>
