<svg width="268" height="168" viewBox="0 0 268 168" fill="none" xmlns="http://www.w3.org/2000/svg">
<mask id="mask0_62_41" style="mask-type:alpha" maskUnits="userSpaceOnUse" x="5" y="0" width="257" height="106">
<rect x="12.3506" width="249.612" height="85.7445" transform="rotate(4.58039 12.3506 0)" fill="#D9D9D9"/>
</mask>
<g mask="url(#mask0_62_41)">
<path d="M86.2687 74.9327C86.0027 71.6071 84.7556 69.0132 82.5275 67.1509C80.3326 65.2886 76.9905 64.3575 72.501 64.3575C69.641 64.3575 67.2965 64.7067 65.4675 65.405C63.6717 66.0701 62.3415 66.9846 61.4768 68.1486C60.6122 69.3125 60.1632 70.6427 60.13 72.1392C60.0635 73.3697 60.2796 74.4837 60.7785 75.4814C61.3106 76.4458 62.1419 77.3271 63.2726 78.1252C64.4033 78.8901 65.8499 79.5884 67.6124 80.2203C69.375 80.8521 71.4701 81.4175 73.8977 81.9163L82.2781 83.7121C87.9315 84.9093 92.7701 86.4889 96.794 88.451C100.818 90.413 104.11 92.7243 106.671 95.3847C109.232 98.0119 111.11 100.972 112.308 104.264C113.538 107.556 114.17 111.148 114.203 115.039C114.17 121.756 112.491 127.443 109.165 132.099C105.839 136.754 101.084 140.296 94.8985 142.724C88.7462 145.151 81.3469 146.365 72.7005 146.365C63.8213 146.365 56.0728 145.052 49.455 142.424C42.8705 139.797 37.7491 135.757 34.0911 130.303C30.4662 124.816 28.6372 117.799 28.6039 109.252H54.9422C55.1084 112.378 55.8899 115.005 57.2867 117.134C58.6834 119.262 60.6454 120.875 63.1729 121.972C65.7335 123.07 68.7764 123.619 72.3014 123.619C75.2612 123.619 77.7387 123.253 79.734 122.521C81.7293 121.789 83.2425 120.775 84.2734 119.478C85.3043 118.181 85.8364 116.701 85.8696 115.039C85.8364 113.476 85.3209 112.112 84.3233 110.948C83.3589 109.751 81.7626 108.687 79.5345 107.756C77.3064 106.791 74.2968 105.893 70.5057 105.062L60.3295 102.867C51.2841 100.905 44.1508 97.6294 38.9297 93.0402C33.7419 88.4177 31.1646 82.1158 31.1978 74.1346C31.1646 67.6498 32.8939 61.9797 36.3857 57.1244C39.9107 52.2359 44.7826 48.4282 51.0014 45.7012C57.2534 42.9743 64.4199 41.6108 72.501 41.6108C80.7483 41.6108 87.8816 42.9909 93.9008 45.7511C99.92 48.5113 104.559 52.4022 107.818 57.4237C111.11 62.412 112.773 68.2484 112.806 74.9327H86.2687ZM124.753 145.168V43.0075H152.488V82.914H189.202V43.0075H216.937V145.168H189.202V105.262H152.488V145.168H124.753Z" fill="black"/>
</g>
<mask id="mask1_62_41" style="mask-type:alpha" maskUnits="userSpaceOnUse" x="0" y="88" width="268" height="80">
<rect x="4.75879" y="88.9429" width="264" height="57.0262" transform="rotate(4.78682 4.75879 88.9429)" fill="#D9D9D9"/>
</mask>
<g mask="url(#mask1_62_41)">
<path d="M95.5825 80.1181C95.3265 76.7918 94.0872 74.1941 91.8647 72.3251C89.6755 70.4562 86.3362 69.515 81.8467 69.5015C78.9868 69.4929 76.6412 69.835 74.8101 70.5278C73.0123 71.1875 71.6793 72.098 70.8112 73.2594C69.9431 74.4207 69.4901 75.7495 69.4523 77.2459C69.3821 78.4762 69.5949 79.5909 70.0908 80.59C70.6199 81.556 71.4487 82.4398 72.5769 83.2413C73.7053 84.0096 75.1498 84.7123 76.9104 85.3495C78.671 85.9866 80.7644 86.5583 83.1905 87.0644L91.5654 88.8855C97.2152 90.0997 102.049 91.6939 106.067 93.668C110.085 95.6422 113.37 97.9634 115.923 100.632C118.476 103.266 120.346 106.232 121.533 109.528C122.754 112.824 123.375 116.417 123.396 120.308C123.343 127.025 121.646 132.707 118.307 137.353C114.967 141.998 110.201 145.526 104.008 147.935C97.8485 150.344 90.4456 151.535 81.7992 151.509C72.9201 151.483 65.1756 150.146 58.5657 147.499C51.9891 144.852 46.88 140.796 43.2383 135.331C39.63 129.833 37.8221 122.81 37.8146 114.264L64.1527 114.343C64.3096 117.47 65.0832 120.099 66.4735 122.232C67.8638 124.364 69.821 125.983 72.3451 127.088C74.9024 128.193 77.9436 128.751 81.4687 128.762C84.4284 128.771 86.907 128.412 88.9045 127.687C90.902 126.961 92.4182 125.951 93.453 124.657C94.4878 123.364 95.0244 121.885 95.0626 120.223C95.0341 118.66 94.5227 117.295 93.5286 116.128C92.5678 114.928 90.9748 113.859 88.7495 112.921C86.5243 111.95 83.5174 111.043 79.7288 110.2L69.5593 107.974C60.5198 105.985 53.3964 102.688 48.1892 98.083C43.0153 93.4449 40.457 87.1352 40.5143 79.1541C40.5006 72.6692 42.2469 67.0044 45.7534 62.1597C49.2931 57.2818 54.1765 53.4887 60.4034 50.7805C66.6636 48.0725 73.8342 46.7306 81.9152 46.7549C90.1625 46.7798 97.2916 48.1813 103.302 50.9597C109.313 53.738 113.941 57.6428 117.185 62.6742C120.462 67.6724 122.107 73.5136 122.12 80.198L95.5825 80.1181ZM133.856 150.469L134.163 48.309L161.898 48.3926L161.778 88.2988L198.492 88.4094L198.612 48.5032L226.347 48.5867L226.039 150.747L198.304 150.663L198.424 110.757L161.711 110.646L161.59 150.553L133.856 150.469Z" fill="#1A73E8"/>
</g>
</svg>
