<svg width="966" height="177" viewBox="0 0 966 177" fill="none" xmlns="http://www.w3.org/2000/svg">
<mask id="mask0_64_29" style="mask-type:alpha" maskUnits="userSpaceOnUse" x="0" y="0" width="966" height="129">
<rect x="4.14551" width="962.907" height="77.293" transform="rotate(3.0744 4.14551 0)" fill="#D9D9D9"/>
</mask>
<g mask="url(#mask0_64_29)">
<path d="M123.152 70C122.97 67.7273 122.118 65.9545 120.595 64.6818C119.095 63.4091 116.811 62.7727 113.743 62.7727C111.788 62.7727 110.186 63.0114 108.936 63.4886C107.709 63.9432 106.8 64.5682 106.209 65.3636C105.618 66.1591 105.311 67.0682 105.288 68.0909C105.243 68.9318 105.391 69.6932 105.732 70.375C106.095 71.0341 106.663 71.6364 107.436 72.1818C108.209 72.7045 109.197 73.1818 110.402 73.6136C111.607 74.0455 113.038 74.4318 114.697 74.7727L120.425 76C124.288 76.8182 127.595 77.8977 130.345 79.2386C133.095 80.5795 135.345 82.1591 137.095 83.9773C138.845 85.7727 140.129 87.7955 140.947 90.0455C141.788 92.2955 142.22 94.75 142.243 97.4091C142.22 102 141.072 105.886 138.8 109.068C136.527 112.25 133.277 114.67 129.05 116.33C124.845 117.989 119.788 118.818 113.879 118.818C107.811 118.818 102.516 117.92 97.9929 116.125C93.4929 114.33 89.9929 111.568 87.4929 107.841C85.0156 104.091 83.7656 99.2955 83.7429 93.4545H101.743C101.857 95.5909 102.391 97.3864 103.345 98.8409C104.3 100.295 105.641 101.398 107.368 102.148C109.118 102.898 111.197 103.273 113.607 103.273C115.629 103.273 117.322 103.023 118.686 102.523C120.05 102.023 121.084 101.33 121.788 100.443C122.493 99.5568 122.857 98.5455 122.879 97.4091C122.857 96.3409 122.504 95.4091 121.822 94.6136C121.163 93.7955 120.072 93.0682 118.55 92.4318C117.027 91.7727 114.97 91.1591 112.379 90.5909L105.425 89.0909C99.2429 87.75 94.3679 85.5114 90.7997 82.375C87.2543 79.2159 85.4929 74.9091 85.5156 69.4545C85.4929 65.0227 86.6747 61.1477 89.0611 57.8295C91.4702 54.4886 94.7997 51.8864 99.0497 50.0227C103.322 48.1591 108.22 47.2273 113.743 47.2273C119.379 47.2273 124.254 48.1705 128.368 50.0568C132.482 51.9432 135.652 54.6023 137.879 58.0341C140.129 61.4432 141.266 65.4318 141.288 70H123.152ZM149.453 118V48.1818H168.408V102.727H196.635V118H149.453ZM269.214 83.0909C269.214 90.8636 267.703 97.4205 264.68 102.761C261.658 108.08 257.578 112.114 252.442 114.864C247.305 117.591 241.578 118.955 235.26 118.955C228.896 118.955 223.146 117.58 218.01 114.83C212.896 112.057 208.828 108.011 205.805 102.693C202.805 97.3523 201.305 90.8182 201.305 83.0909C201.305 75.3182 202.805 68.7727 205.805 63.4545C208.828 58.1136 212.896 54.0795 218.01 51.3523C223.146 48.6023 228.896 47.2273 235.26 47.2273C241.578 47.2273 247.305 48.6023 252.442 51.3523C257.578 54.0795 261.658 58.1136 264.68 63.4545C267.703 68.7727 269.214 75.3182 269.214 83.0909ZM249.714 83.0909C249.714 78.9091 249.158 75.3864 248.044 72.5227C246.953 69.6364 245.328 67.4545 243.169 65.9773C241.033 64.4773 238.396 63.7273 235.26 63.7273C232.124 63.7273 229.476 64.4773 227.317 65.9773C225.18 67.4545 223.555 69.6364 222.442 72.5227C221.351 75.3864 220.805 78.9091 220.805 83.0909C220.805 87.2727 221.351 90.8068 222.442 93.6932C223.555 96.5568 225.18 98.7386 227.317 100.239C229.476 101.716 232.124 102.455 235.26 102.455C238.396 102.455 241.033 101.716 243.169 100.239C245.328 98.7386 246.953 96.5568 248.044 93.6932C249.158 90.8068 249.714 87.2727 249.714 83.0909ZM272.794 63.4545V48.1818H333.476V63.4545H312.476V118H293.794V63.4545H272.794ZM378.246 70C378.064 67.7273 377.212 65.9545 375.689 64.6818C374.189 63.4091 371.905 62.7727 368.837 62.7727C366.882 62.7727 365.28 63.0114 364.03 63.4886C362.803 63.9432 361.893 64.5682 361.303 65.3636C360.712 66.1591 360.405 67.0682 360.382 68.0909C360.337 68.9318 360.484 69.6932 360.825 70.375C361.189 71.0341 361.757 71.6364 362.53 72.1818C363.303 72.7045 364.291 73.1818 365.496 73.6136C366.7 74.0455 368.132 74.4318 369.791 74.7727L375.518 76C379.382 76.8182 382.689 77.8977 385.439 79.2386C388.189 80.5795 390.439 82.1591 392.189 83.9773C393.939 85.7727 395.223 87.7955 396.041 90.0455C396.882 92.2955 397.314 94.75 397.337 97.4091C397.314 102 396.166 105.886 393.893 109.068C391.621 112.25 388.371 114.67 384.143 116.33C379.939 117.989 374.882 118.818 368.973 118.818C362.905 118.818 357.609 117.92 353.087 116.125C348.587 114.33 345.087 111.568 342.587 107.841C340.109 104.091 338.859 99.2955 338.837 93.4545H356.837C356.95 95.5909 357.484 97.3864 358.439 98.8409C359.393 100.295 360.734 101.398 362.462 102.148C364.212 102.898 366.291 103.273 368.7 103.273C370.723 103.273 372.416 103.023 373.78 102.523C375.143 102.023 376.178 101.33 376.882 100.443C377.587 99.5568 377.95 98.5455 377.973 97.4091C377.95 96.3409 377.598 95.4091 376.916 94.6136C376.257 93.7955 375.166 93.0682 373.643 92.4318C372.121 91.7727 370.064 91.1591 367.473 90.5909L360.518 89.0909C354.337 87.75 349.462 85.5114 345.893 82.375C342.348 79.2159 340.587 74.9091 340.609 69.4545C340.587 65.0227 341.768 61.1477 344.155 57.8295C346.564 54.4886 349.893 51.8864 354.143 50.0227C358.416 48.1591 363.314 47.2273 368.837 47.2273C374.473 47.2273 379.348 48.1705 383.462 50.0568C387.575 51.9432 390.746 54.6023 392.973 58.0341C395.223 61.4432 396.359 65.4318 396.382 70H378.246ZM404.547 118V48.1818H423.501V75.4545H448.592V48.1818H467.547V118H448.592V90.7273H423.501V118H404.547ZM494.683 118H474.229L497.274 48.1818H523.183L546.229 118H525.774L510.501 67.4091H509.956L494.683 118ZM490.865 90.4545H529.32V104.636H490.865V90.4545ZM614.854 74.3636H595.626C595.49 72.7727 595.126 71.3295 594.536 70.0341C593.967 68.7386 593.172 67.625 592.149 66.6932C591.149 65.7386 589.933 65.0114 588.501 64.5114C587.07 63.9886 585.445 63.7273 583.626 63.7273C580.445 63.7273 577.751 64.5 575.547 66.0455C573.365 67.5909 571.706 69.8068 570.57 72.6932C569.456 75.5795 568.899 79.0455 568.899 83.0909C568.899 87.3636 569.467 90.9432 570.604 93.8295C571.763 96.6932 573.433 98.8523 575.615 100.307C577.797 101.739 580.422 102.455 583.49 102.455C585.24 102.455 586.808 102.239 588.195 101.807C589.581 101.352 590.786 100.705 591.808 99.8636C592.831 99.0227 593.661 98.0114 594.297 96.8295C594.956 95.625 595.399 94.2727 595.626 92.7727L614.854 92.9091C614.626 95.8636 613.797 98.875 612.365 101.943C610.933 104.989 608.899 107.807 606.263 110.398C603.649 112.966 600.411 115.034 596.547 116.602C592.683 118.17 588.195 118.955 583.081 118.955C576.672 118.955 570.922 117.58 565.831 114.83C560.763 112.08 556.751 108.034 553.797 102.693C550.865 97.3523 549.399 90.8182 549.399 83.0909C549.399 75.3182 550.899 68.7727 553.899 63.4545C556.899 58.1136 560.945 54.0795 566.036 51.3523C571.126 48.6023 576.808 47.2273 583.081 47.2273C587.49 47.2273 591.547 47.8295 595.251 49.0341C598.956 50.2386 602.206 52 605.001 54.3182C607.797 56.6136 610.047 59.4432 611.751 62.8068C613.456 66.1705 614.49 70.0227 614.854 74.3636ZM623.453 118V48.1818H642.408V76.4091H643.362L664.362 48.1818H686.453L662.862 79.2727L686.999 118H664.362L648.68 91.8182L642.408 100V118H623.453ZM728.777 70C728.595 67.7273 727.743 65.9545 726.22 64.6818C724.72 63.4091 722.436 62.7727 719.368 62.7727C717.413 62.7727 715.811 63.0114 714.561 63.4886C713.334 63.9432 712.425 64.5682 711.834 65.3636C711.243 66.1591 710.936 67.0682 710.913 68.0909C710.868 68.9318 711.016 69.6932 711.357 70.375C711.72 71.0341 712.288 71.6364 713.061 72.1818C713.834 72.7045 714.822 73.1818 716.027 73.6136C717.232 74.0455 718.663 74.4318 720.322 74.7727L726.05 76C729.913 76.8182 733.22 77.8977 735.97 79.2386C738.72 80.5795 740.97 82.1591 742.72 83.9773C744.47 85.7727 745.754 87.7955 746.572 90.0455C747.413 92.2955 747.845 94.75 747.868 97.4091C747.845 102 746.697 105.886 744.425 109.068C742.152 112.25 738.902 114.67 734.675 116.33C730.47 117.989 725.413 118.818 719.504 118.818C713.436 118.818 708.141 117.92 703.618 116.125C699.118 114.33 695.618 111.568 693.118 107.841C690.641 104.091 689.391 99.2955 689.368 93.4545H707.368C707.482 95.5909 708.016 97.3864 708.97 98.8409C709.925 100.295 711.266 101.398 712.993 102.148C714.743 102.898 716.822 103.273 719.232 103.273C721.254 103.273 722.947 103.023 724.311 102.523C725.675 102.023 726.709 101.33 727.413 100.443C728.118 99.5568 728.482 98.5455 728.504 97.4091C728.482 96.3409 728.129 95.4091 727.447 94.6136C726.788 93.7955 725.697 93.0682 724.175 92.4318C722.652 91.7727 720.595 91.1591 718.004 90.5909L711.05 89.0909C704.868 87.75 699.993 85.5114 696.425 82.375C692.879 79.2159 691.118 74.9091 691.141 69.4545C691.118 65.0227 692.3 61.1477 694.686 57.8295C697.095 54.4886 700.425 51.8864 704.675 50.0227C708.947 48.1591 713.845 47.2273 719.368 47.2273C725.004 47.2273 729.879 48.1705 733.993 50.0568C738.107 51.9432 741.277 54.6023 743.504 58.0341C745.754 61.4432 746.891 65.4318 746.913 70H728.777ZM770.496 118H750.041L773.087 48.1818H798.996L822.041 118H801.587L786.314 67.4091H785.768L770.496 118ZM766.678 90.4545H805.132V104.636H766.678V90.4545ZM838.337 118L817.746 48.1818H838.882L848.428 91.1364H848.973L860.291 48.1818H876.928L888.246 91.2727H888.791L898.337 48.1818H919.473L898.882 118H880.746L868.882 79H868.337L856.473 118H838.337Z" fill="black"/>
</g>
<mask id="mask1_64_29" style="mask-type:alpha" maskUnits="userSpaceOnUse" x="60" y="82" width="876" height="95">
<rect x="62.5596" y="82" width="874" height="45.8885" transform="rotate(3.17786 62.5596 82)" fill="#D9D9D9"/>
</mask>
<g mask="url(#mask1_64_29)">
<path d="M120.152 78C119.97 75.7273 119.118 73.9545 117.595 72.6818C116.095 71.4091 113.811 70.7727 110.743 70.7727C108.788 70.7727 107.186 71.0114 105.936 71.4886C104.709 71.9432 103.8 72.5682 103.209 73.3636C102.618 74.1591 102.311 75.0682 102.288 76.0909C102.243 76.9318 102.391 77.6932 102.732 78.375C103.095 79.0341 103.663 79.6364 104.436 80.1818C105.209 80.7045 106.197 81.1818 107.402 81.6136C108.607 82.0455 110.038 82.4318 111.697 82.7727L117.425 84C121.288 84.8182 124.595 85.8977 127.345 87.2386C130.095 88.5795 132.345 90.1591 134.095 91.9773C135.845 93.7727 137.129 95.7955 137.947 98.0455C138.788 100.295 139.22 102.75 139.243 105.409C139.22 110 138.072 113.886 135.8 117.068C133.527 120.25 130.277 122.67 126.05 124.33C121.845 125.989 116.788 126.818 110.879 126.818C104.811 126.818 99.5156 125.92 94.9929 124.125C90.4929 122.33 86.9929 119.568 84.4929 115.841C82.0156 112.091 80.7656 107.295 80.7429 101.455H98.7429C98.8565 103.591 99.3906 105.386 100.345 106.841C101.3 108.295 102.641 109.398 104.368 110.148C106.118 110.898 108.197 111.273 110.607 111.273C112.629 111.273 114.322 111.023 115.686 110.523C117.05 110.023 118.084 109.33 118.788 108.443C119.493 107.557 119.857 106.545 119.879 105.409C119.857 104.341 119.504 103.409 118.822 102.614C118.163 101.795 117.072 101.068 115.55 100.432C114.027 99.7727 111.97 99.1591 109.379 98.5909L102.425 97.0909C96.2429 95.75 91.3679 93.5114 87.7997 90.375C84.2543 87.2159 82.4929 82.9091 82.5156 77.4545C82.4929 73.0227 83.6747 69.1477 86.0611 65.8295C88.4702 62.4886 91.7997 59.8864 96.0497 58.0227C100.322 56.1591 105.22 55.2273 110.743 55.2273C116.379 55.2273 121.254 56.1705 125.368 58.0568C129.482 59.9432 132.652 62.6023 134.879 66.0341C137.129 69.4432 138.266 73.4318 138.288 78H120.152ZM146.453 126V56.1818H165.408V110.727H193.635V126H146.453ZM266.214 91.0909C266.214 98.8636 264.703 105.42 261.68 110.761C258.658 116.08 254.578 120.114 249.442 122.864C244.305 125.591 238.578 126.955 232.26 126.955C225.896 126.955 220.146 125.58 215.01 122.83C209.896 120.057 205.828 116.011 202.805 110.693C199.805 105.352 198.305 98.8182 198.305 91.0909C198.305 83.3182 199.805 76.7727 202.805 71.4545C205.828 66.1136 209.896 62.0795 215.01 59.3523C220.146 56.6023 225.896 55.2273 232.26 55.2273C238.578 55.2273 244.305 56.6023 249.442 59.3523C254.578 62.0795 258.658 66.1136 261.68 71.4545C264.703 76.7727 266.214 83.3182 266.214 91.0909ZM246.714 91.0909C246.714 86.9091 246.158 83.3864 245.044 80.5227C243.953 77.6364 242.328 75.4545 240.169 73.9773C238.033 72.4773 235.396 71.7273 232.26 71.7273C229.124 71.7273 226.476 72.4773 224.317 73.9773C222.18 75.4545 220.555 77.6364 219.442 80.5227C218.351 83.3864 217.805 86.9091 217.805 91.0909C217.805 95.2727 218.351 98.8068 219.442 101.693C220.555 104.557 222.18 106.739 224.317 108.239C226.476 109.716 229.124 110.455 232.26 110.455C235.396 110.455 238.033 109.716 240.169 108.239C242.328 106.739 243.953 104.557 245.044 101.693C246.158 98.8068 246.714 95.2727 246.714 91.0909ZM269.794 71.4545V56.1818H330.476V71.4545H309.476V126H290.794V71.4545H269.794ZM375.246 78C375.064 75.7273 374.212 73.9545 372.689 72.6818C371.189 71.4091 368.905 70.7727 365.837 70.7727C363.882 70.7727 362.28 71.0114 361.03 71.4886C359.803 71.9432 358.893 72.5682 358.303 73.3636C357.712 74.1591 357.405 75.0682 357.382 76.0909C357.337 76.9318 357.484 77.6932 357.825 78.375C358.189 79.0341 358.757 79.6364 359.53 80.1818C360.303 80.7045 361.291 81.1818 362.496 81.6136C363.7 82.0455 365.132 82.4318 366.791 82.7727L372.518 84C376.382 84.8182 379.689 85.8977 382.439 87.2386C385.189 88.5795 387.439 90.1591 389.189 91.9773C390.939 93.7727 392.223 95.7955 393.041 98.0455C393.882 100.295 394.314 102.75 394.337 105.409C394.314 110 393.166 113.886 390.893 117.068C388.621 120.25 385.371 122.67 381.143 124.33C376.939 125.989 371.882 126.818 365.973 126.818C359.905 126.818 354.609 125.92 350.087 124.125C345.587 122.33 342.087 119.568 339.587 115.841C337.109 112.091 335.859 107.295 335.837 101.455H353.837C353.95 103.591 354.484 105.386 355.439 106.841C356.393 108.295 357.734 109.398 359.462 110.148C361.212 110.898 363.291 111.273 365.7 111.273C367.723 111.273 369.416 111.023 370.78 110.523C372.143 110.023 373.178 109.33 373.882 108.443C374.587 107.557 374.95 106.545 374.973 105.409C374.95 104.341 374.598 103.409 373.916 102.614C373.257 101.795 372.166 101.068 370.643 100.432C369.121 99.7727 367.064 99.1591 364.473 98.5909L357.518 97.0909C351.337 95.75 346.462 93.5114 342.893 90.375C339.348 87.2159 337.587 82.9091 337.609 77.4545C337.587 73.0227 338.768 69.1477 341.155 65.8295C343.564 62.4886 346.893 59.8864 351.143 58.0227C355.416 56.1591 360.314 55.2273 365.837 55.2273C371.473 55.2273 376.348 56.1705 380.462 58.0568C384.575 59.9432 387.746 62.6023 389.973 66.0341C392.223 69.4432 393.359 73.4318 393.382 78H375.246ZM401.547 126V56.1818H420.501V83.4545H445.592V56.1818H464.547V126H445.592V98.7273H420.501V126H401.547ZM491.683 126H471.229L494.274 56.1818H520.183L543.229 126H522.774L507.501 75.4091H506.956L491.683 126ZM487.865 98.4545H526.32V112.636H487.865V98.4545ZM611.854 82.3636H592.626C592.49 80.7727 592.126 79.3295 591.536 78.0341C590.967 76.7386 590.172 75.625 589.149 74.6932C588.149 73.7386 586.933 73.0114 585.501 72.5114C584.07 71.9886 582.445 71.7273 580.626 71.7273C577.445 71.7273 574.751 72.5 572.547 74.0455C570.365 75.5909 568.706 77.8068 567.57 80.6932C566.456 83.5795 565.899 87.0455 565.899 91.0909C565.899 95.3636 566.467 98.9432 567.604 101.83C568.763 104.693 570.433 106.852 572.615 108.307C574.797 109.739 577.422 110.455 580.49 110.455C582.24 110.455 583.808 110.239 585.195 109.807C586.581 109.352 587.786 108.705 588.808 107.864C589.831 107.023 590.661 106.011 591.297 104.83C591.956 103.625 592.399 102.273 592.626 100.773L611.854 100.909C611.626 103.864 610.797 106.875 609.365 109.943C607.933 112.989 605.899 115.807 603.263 118.398C600.649 120.966 597.411 123.034 593.547 124.602C589.683 126.17 585.195 126.955 580.081 126.955C573.672 126.955 567.922 125.58 562.831 122.83C557.763 120.08 553.751 116.034 550.797 110.693C547.865 105.352 546.399 98.8182 546.399 91.0909C546.399 83.3182 547.899 76.7727 550.899 71.4545C553.899 66.1136 557.945 62.0795 563.036 59.3523C568.126 56.6023 573.808 55.2273 580.081 55.2273C584.49 55.2273 588.547 55.8295 592.251 57.0341C595.956 58.2386 599.206 60 602.001 62.3182C604.797 64.6136 607.047 67.4432 608.751 70.8068C610.456 74.1705 611.49 78.0227 611.854 82.3636ZM620.453 126V56.1818H639.408V84.4091H640.362L661.362 56.1818H683.453L659.862 87.2727L683.999 126H661.362L645.68 99.8182L639.408 108V126H620.453ZM725.777 78C725.595 75.7273 724.743 73.9545 723.22 72.6818C721.72 71.4091 719.436 70.7727 716.368 70.7727C714.413 70.7727 712.811 71.0114 711.561 71.4886C710.334 71.9432 709.425 72.5682 708.834 73.3636C708.243 74.1591 707.936 75.0682 707.913 76.0909C707.868 76.9318 708.016 77.6932 708.357 78.375C708.72 79.0341 709.288 79.6364 710.061 80.1818C710.834 80.7045 711.822 81.1818 713.027 81.6136C714.232 82.0455 715.663 82.4318 717.322 82.7727L723.05 84C726.913 84.8182 730.22 85.8977 732.97 87.2386C735.72 88.5795 737.97 90.1591 739.72 91.9773C741.47 93.7727 742.754 95.7955 743.572 98.0455C744.413 100.295 744.845 102.75 744.868 105.409C744.845 110 743.697 113.886 741.425 117.068C739.152 120.25 735.902 122.67 731.675 124.33C727.47 125.989 722.413 126.818 716.504 126.818C710.436 126.818 705.141 125.92 700.618 124.125C696.118 122.33 692.618 119.568 690.118 115.841C687.641 112.091 686.391 107.295 686.368 101.455H704.368C704.482 103.591 705.016 105.386 705.97 106.841C706.925 108.295 708.266 109.398 709.993 110.148C711.743 110.898 713.822 111.273 716.232 111.273C718.254 111.273 719.947 111.023 721.311 110.523C722.675 110.023 723.709 109.33 724.413 108.443C725.118 107.557 725.482 106.545 725.504 105.409C725.482 104.341 725.129 103.409 724.447 102.614C723.788 101.795 722.697 101.068 721.175 100.432C719.652 99.7727 717.595 99.1591 715.004 98.5909L708.05 97.0909C701.868 95.75 696.993 93.5114 693.425 90.375C689.879 87.2159 688.118 82.9091 688.141 77.4545C688.118 73.0227 689.3 69.1477 691.686 65.8295C694.095 62.4886 697.425 59.8864 701.675 58.0227C705.947 56.1591 710.845 55.2273 716.368 55.2273C722.004 55.2273 726.879 56.1705 730.993 58.0568C735.107 59.9432 738.277 62.6023 740.504 66.0341C742.754 69.4432 743.891 73.4318 743.913 78H725.777ZM767.496 126H747.041L770.087 56.1818H795.996L819.041 126H798.587L783.314 75.4091H782.768L767.496 126ZM763.678 98.4545H802.132V112.636H763.678V98.4545ZM835.337 126L814.746 56.1818H835.882L845.428 99.1364H845.973L857.291 56.1818H873.928L885.246 99.2727H885.791L895.337 56.1818H916.473L895.882 126H877.746L865.882 87H865.337L853.473 126H835.337Z" fill="#1A73E8"/>
</g>
</svg>
